<svg width="1742" height="980" viewBox="0 0 1742 980" fill="none" xmlns="http://www.w3.org/2000/svg">
<g clip-path="url(#clip0_80_43)">
<path d="M-1116.27 -564C-614.305 -564 -112.37 -564 389.597 -564C392.571 -559.709 394.897 -555.153 398.581 -551.172C421.851 -525.893 448.804 -502.493 478.473 -480.62C588.387 -399.606 718.112 -336.861 861.411 -286.656C918.938 -266.507 978.759 -250.141 1039.32 -234.925C1063.56 -219.952 1088.74 -205.62 1111.85 -189.851C1150.47 -163.532 1194.26 -141.504 1237.37 -119.144C1275.31 -99.4817 1318.07 -84.376 1359.21 -67.7663C1403.94 -49.6969 1451.38 -36.0729 1498.99 -22.9577C1545.2 -10.2406 1594.2 -2.54396 1643.13 4.33435C1715.42 14.4859 1789.07 16.5871 1862.44 19.5065C1929.59 22.1826 1996.2 26.9377 2061.39 38.3942C2099.85 45.1398 2134.1 57.879 2162.45 77.2533C2198.81 102.09 2212.28 133.585 2215 167.379C2216.9 191.243 2214.93 215.262 2215.51 239.192C2216.74 289.242 2275.08 331.618 2346.95 336.395C2359.1 337.192 2372.94 334.029 2383.86 340.708C2378.53 347.719 2378.46 355.571 2377.53 363.068C2373.07 398.964 2368.02 434.881 2373.84 470.932C2354 484.755 2340.94 501.785 2327.63 518.483C2291.59 563.711 2277.89 610.82 2302.71 661.445C2310.01 676.33 2322.23 689.069 2332.18 702.781C2332.09 708.753 2328.69 714.15 2326.4 719.789C2321 733.192 2309.04 744.383 2303.61 758.184C2291.07 789.966 2281.28 821.394 2282.77 854.613C2283.87 879.605 2294.11 902.584 2310.69 923.993C2334.48 954.736 2372.55 976.277 2417.02 992.29C2430.4 997.111 2440.22 1007.46 2458.19 1005.78C2488.7 1021.44 2518.82 1037.47 2549.75 1052.71C2627.31 1090.95 2709.05 1125.37 2779.24 1170.29C2795.5 1180.68 2814.6 1189.64 2823 1204.81C2795.59 1240.37 2754.74 1267.82 2709.69 1292.77C2669.62 1314.97 2626.15 1334.39 2590.44 1360.18C2569.79 1375.09 2553.14 1391.54 2547.78 1412.38C2538.79 1447.3 2558.28 1476.69 2586.27 1504.2C2620.56 1537.89 2665.97 1563.74 2714.48 1587.25C2712.92 1592.49 2711.37 1597.76 2709.82 1603H1023C1027.53 1601.03 1031.95 1598.93 1036.61 1597.14C1070.9 1584 1087.19 1564.38 1085.22 1537.22C1082.89 1505.51 1062.88 1478.39 1039.52 1452.25C999.12 1406.98 946.764 1368.61 889.69 1333.09C781.812 1265.96 660.78 1212.53 528.695 1170.55C482.318 1155.8 434.455 1143.79 386.559 1131.71C386.656 1127.45 382.099 1125.34 378.124 1122.85C361.513 1112.38 344.61 1102.12 328.613 1091.24C302.306 1073.37 273.898 1056.98 244.714 1041.61C199.404 1017.77 152.316 995.276 102.546 975.923C7.3045 938.878 -92.9145 911.077 -201.116 896.038C-275.933 885.621 -351.493 884.692 -426.794 880.18C-471.199 877.526 -515.702 876.155 -559.719 870.758C-610.782 864.499 -660.714 856.869 -703.568 834.796C-734.787 818.718 -757.022 798.171 -768.43 773.268C-782.36 742.835 -781.196 710.722 -778.805 679.36C-777.512 662.662 -779.354 646.782 -786.884 631.654C-811.155 582.997 -856.982 566.255 -931.929 562.053C-943.563 561.411 -945.47 558.624 -945.244 552.388C-937.972 516.536 -931.379 480.641 -935.677 444.303C-934.74 441.229 -934.869 438.265 -937.358 435.523C-937.455 432.67 -937.52 429.817 -937.617 426.986C-932.478 426.234 -929.44 423.734 -926.596 420.97C-905.815 400.844 -886.748 379.899 -873.626 356.964C-852.199 319.52 -845.316 281.214 -863.705 241.89C-871.106 226.055 -882.676 211.679 -893.922 197.126C-895.829 191.177 -894.698 185.913 -889.786 180.428C-883.677 173.572 -877.86 166.207 -874.822 158.532C-863.64 130.289 -848.321 102.909 -845.671 72.9848C-843.021 42.9281 -847.643 13.9994 -865.256 -13.1158C-892.953 -55.779 -944.597 -82.1643 -1003.84 -102.445C-1007.46 -103.684 -1012.17 -103.374 -1016.38 -103.772C-1018.64 -104.723 -1021.13 -105.52 -1023.16 -106.648C-1080.11 -138.673 -1140.87 -167.071 -1201.53 -195.623C-1262.64 -224.375 -1322.43 -254.41 -1373.2 -291.897C-1378.7 -295.945 -1384.87 -299.616 -1386 -305.566C-1375.08 -318.216 -1363.86 -330.712 -1350.13 -342.125C-1312.19 -373.663 -1264.87 -397.925 -1217.88 -422.431C-1195.65 -434.02 -1174.25 -446.25 -1154.41 -459.764C-1111.07 -489.29 -1098.56 -523.947 -1116.14 -563.889L-1116.27 -564Z" fill="#070810"/>
<path d="M434.05 979.87C290.95 979.87 147.84 979.84 4.74 980C0.46 980 0 978.85 0 975.02C0.11 651.53 0.11 328.04 0 4.5601C0 0.720101 0.97 -0.00989937 4.63 0.000100632C38.45 0.160101 72.27 0.0901006 106.08 0.0901006C103.27 7.0001 97.96 12.2001 93.53 17.9401C82.68 31.9801 70.94 45.2701 62.5 61.1601C53.4 78.3001 50.49 96.3001 52.35 115.23C53.38 125.72 56.86 135.63 61.72 145C70.76 162.41 83.97 176.34 98.58 189.1C113.38 202.03 129.68 212.97 145.59 224.42C165.82 238.97 186.32 253.18 202.82 272.2C214.78 285.97 223.09 301.35 224.31 319.94C225.65 341.18 217.06 359.45 205.79 376.29C193.64 394.44 177.74 409.53 161.3 423.81C144.5 438.41 127.16 452.39 110.08 466.67C96.66 477.88 83.04 489.04 73.19 503.63C62.44 519.55 62.3 532.88 79.48 542.91C80.2 543.33 80.92 543.73 81.67 544.09C92.67 549.34 104.64 551.79 116.05 555.9C127.56 560.06 137.49 566.36 143.73 576.88C150.77 588.76 151.53 601.65 147.13 614.87C142.99 627.3 137.8 639.38 134.9 652.23C132.96 660.84 133.22 669.47 134.82 677.95C137.55 692.44 146.69 703.09 157.66 712.05C170.32 722.4 184.8 729.73 199.65 736.59C216.1 744.19 233.08 750.51 249.45 758.28C267.06 766.64 284.11 775.91 300 787.27C316.14 798.81 330.47 812.33 344.35 826.45C354.63 836.92 363.67 848.4 372.51 860C384.86 876.23 395.45 893.72 405 911.7C416.61 933.55 426.79 956.11 434.05 979.86V979.87Z" fill="#0A0032"/>
<path d="M1362.95 0.09C1487.77 0.09 1612.59 0.11 1737.41 0C1741.16 0 1742 0.85 1742 4.59C1741.9 328.18 1741.9 651.78 1742 975.37C1742 979.12 1741.16 980 1737.41 979.97C1714.91 979.77 1692.42 979.87 1669.92 979.87C1668.54 975.43 1664.84 972.58 1662.38 968.88C1653.91 956.19 1651.05 943.02 1657.02 928.25C1662.96 913.57 1673.44 902.21 1683.17 890.26C1694.55 876.29 1705.39 861.97 1711.9 844.97C1721.41 820.12 1719.81 795.65 1707.89 772.04C1695.96 748.41 1676.46 731.49 1656.01 715.62C1633.96 698.51 1610.2 683.7 1588.72 665.82C1575.35 654.69 1562.87 642.75 1554.33 627.35C1549.27 618.23 1546.87 608.18 1544.95 598.02C1546.5 591.81 1545.11 585.36 1546.47 579.15C1550.34 561.57 1559.18 546.47 1570.02 532.4C1578.96 520.79 1589 510.21 1599.95 500.47C1607.53 493.74 1614.95 486.82 1622.7 480.3C1633.22 471.45 1644.1 463.01 1654.64 454.17C1663.54 446.71 1672.5 439.27 1680.81 431.18C1688.77 423.43 1696.61 415.4 1701.03 404.82C1705.89 393.17 1703.21 381.9 1693.85 376.09C1688.18 372.57 1682.05 369.98 1675.68 367.94C1664.91 364.51 1653.92 361.73 1643.79 356.47C1626.69 347.6 1617.69 329.77 1620.65 310.82C1622.82 296.9 1629.27 284.37 1633.09 270.99C1637.44 255.73 1638.08 240.62 1630.57 226.37C1623.42 212.82 1611.89 203 1598.95 195.22C1584.3 186.41 1568.71 179.35 1552.92 172.74C1543.72 168.89 1534.81 164.33 1525.57 160.59C1502.33 151.18 1481.02 138.42 1461.13 123.33C1443.88 110.25 1428.77 94.75 1414.51 78.56C1400.21 62.32 1387.9 44.51 1376.62 26.04C1371.53 17.7 1366.46 9.29 1362.97 0.09H1362.95Z" fill="#0A0032"/>
<path d="M245.17 611.86C250.07 613.85 255.4 614.5 259.97 617.59C272.06 625.77 277.77 637.28 279.23 651.52C280.44 663.34 279.65 675.15 279.99 686.96C280.54 706.27 287.77 722.31 303.62 733.7C314.02 741.17 325.96 745.42 338.52 747.83C362.62 752.47 387.08 753.53 411.49 754.92C441.9 756.65 471.66 761.72 500.25 772.39C528.6 782.97 554.91 797.42 579.71 814.81C603.94 831.8 625.91 851.25 646.18 872.75C671.66 899.77 693.9 929.1 710.87 962.24C713.82 968 717.13 973.62 719.03 979.88H434.06C426.79 956.13 416.62 933.57 405.01 911.72C395.46 893.74 384.87 876.24 372.52 860.02C363.69 848.42 354.65 836.94 344.36 826.47C330.49 812.35 316.15 798.82 300.01 787.29C284.13 775.94 267.08 766.66 249.46 758.3C233.09 750.53 216.11 744.22 199.66 736.61C184.81 729.75 170.33 722.42 157.67 712.07C146.7 703.1 137.56 692.45 134.83 677.97C133.23 669.49 132.97 660.85 134.91 652.25C137.81 639.4 142.99 627.32 147.14 614.89C151.55 601.67 150.78 588.77 143.74 576.9C137.51 566.38 127.57 560.08 116.06 555.92C104.66 551.8 92.69 549.35 81.68 544.11C80.93 543.75 80.21 543.35 79.49 542.93C62.31 532.9 62.45 519.56 73.2 503.65C83.05 489.06 96.67 477.9 110.09 466.69C127.18 452.42 144.51 438.43 161.31 423.83C177.75 409.55 193.65 394.46 205.8 376.31C217.07 359.47 225.66 341.21 224.32 319.96C226.45 320.1 228.61 319.86 230.45 321.49C236.35 326.75 241.69 332.56 246.54 338.76C252.9 346.87 256.68 356.27 258.13 366.43C260.55 383.39 258.41 399.9 253.18 416.24C251.16 422.54 248.36 428.47 246.3 434.66C242.98 444.66 238.73 454.48 233.07 462.93C226.86 472.21 224.68 483.65 216.53 491.69C215.58 492.62 215.53 494.47 215.06 495.89C210.68 500.49 208.03 506.25 204.81 511.59C195.67 526.76 186.43 541.88 178.78 557.9C175.97 563.77 174.54 570.09 172.18 576.09C171.16 576.43 170.42 577.05 170.27 578.16C169.32 584.91 170.13 591.69 173.15 597.56C178.04 607.05 187.34 611.18 197.27 611.7C213.19 612.53 229.19 611.9 245.16 611.89L245.17 611.86Z" fill="#0E1276"/>
<path d="M1555.88 419.97C1564.83 404.84 1573.93 389.8 1582.66 374.54C1589.26 363 1594.33 351.01 1597.5 338C1597.79 336.821 1597.96 333.5 1597.96 331.5C1597.96 329.5 1597.87 327.62 1597.94 325.55C1598.09 320.72 1595.88 316.94 1592.58 313.67C1585.29 306.44 1575.97 306.3 1566.62 306.29C1566.07 306.25 1565.53 306.2 1564.98 306.16C1554.69 306.29 1544.37 305.23 1534.1 306.82C1523.31 305.83 1513.32 303.06 1504.88 295.62C1494.48 286.46 1490.58 274.6 1490 261.41C1489.55 251.27 1490.16 241.08 1489.83 230.93C1489.34 215.86 1485.08 202.01 1474.66 190.69C1466.09 181.38 1455.15 175.84 1443.15 172.32C1425.64 167.19 1407.66 165.15 1389.51 163.89C1362.97 162.05 1336.28 161.45 1310.1 156.09C1285.68 151.09 1262.42 142.68 1239.98 131.79C1221.2 122.68 1203.49 111.87 1186.57 99.77C1149.19 73.05 1117.26 40.76 1089.61 4.14998C1088.67 2.89998 1087.92 1.68998 1087.98 0.0999756H1362.95C1366.44 9.30998 1371.51 17.71 1376.6 26.05C1387.88 44.52 1400.19 62.33 1414.49 78.57C1428.75 94.77 1443.86 110.26 1461.11 123.34C1481 138.43 1502.31 151.18 1525.55 160.6C1534.79 164.34 1543.7 168.9 1552.9 172.75C1568.68 179.36 1584.27 186.42 1598.93 195.23C1611.87 203.01 1623.4 212.83 1630.55 226.38C1638.07 240.63 1637.43 255.74 1633.07 271C1629.25 284.38 1622.8 296.92 1620.63 310.83C1617.67 329.78 1626.67 347.61 1643.77 356.48C1653.91 361.74 1664.9 364.52 1675.66 367.95C1682.04 369.98 1688.16 372.57 1693.83 376.1C1703.18 381.91 1705.87 393.18 1701.01 404.83C1696.59 415.41 1688.75 423.44 1680.79 431.19C1672.48 439.28 1663.52 446.72 1654.62 454.18C1644.08 463.02 1633.21 471.45 1622.68 480.31C1614.93 486.83 1607.5 493.75 1599.93 500.48C1588.98 510.21 1578.95 520.8 1570 532.41C1559.16 546.48 1550.33 561.59 1546.45 579.16C1545.08 585.37 1546.47 591.82 1544.93 598.03C1540.78 596.95 1537.55 594.45 1534.53 591.52C1524.3 581.59 1516.3 570.44 1513.17 556.15C1511.4 548.06 1510.97 539.89 1511.5 531.5C1511.68 528.62 1511.47 526.5 1511.94 523.55C1514 510.5 1516.5 498.47 1520.88 486.65C1526.66 471.04 1534.64 456.31 1542.94 441.81C1546.59 435.43 1549.4 429.143 1553.5 423C1554.5 421.5 1554.5 421.5 1555.88 419.99V419.97Z" fill="#1B23E0"/>
<path d="M215.07 495.86C215.54 494.44 215.59 492.6 216.54 491.66C224.69 483.63 226.87 472.18 233.08 462.9C238.74 454.45 242.99 444.63 246.31 434.63C248.37 428.44 251.17 422.51 253.19 416.21C258.42 399.87 260.56 383.36 258.14 366.4C256.69 356.25 252.9 346.84 246.55 338.73C241.7 332.54 236.36 326.72 230.46 321.46C228.63 319.83 226.47 320.07 224.33 319.93C223.11 301.34 214.8 285.96 202.84 272.19C186.33 253.18 165.84 238.96 145.61 224.41C129.7 212.96 113.4 202.02 98.6001 189.09C83.9801 176.32 70.7701 162.4 61.7401 144.99C56.8801 135.62 53.3901 125.7 52.3701 115.22C50.5201 96.2901 53.4301 78.2901 62.5201 61.1501C70.9601 45.2601 82.6901 31.9801 93.5501 17.9301C97.9901 12.1901 103.29 6.99008 106.1 0.0800781H317.08C322.52 18.1301 318.65 33.8101 305.24 47.1601C299.1 53.2701 292.48 58.8001 285.6 64.0401C271.05 75.1201 256.42 86.1001 244.68 100.35C240.43 105.51 236.96 111.15 233.58 116.88C223.33 137.94 221.12 159.81 227.27 182.42C231.79 199.02 240.35 213.68 250.1 227.63C267.77 252.91 289.61 274.75 309.18 298.47C323.12 315.38 335.68 333.05 342.69 354.11C343.47 357.85 344.35 361.58 345.02 365.34C346.93 376.07 344.97 386.53 342.65 396.96C338.29 405.9 334.24 414.94 327.87 422.82C315.67 437.92 300.51 449.45 284.34 459.76C266.66 471.04 248.07 480.68 229.06 489.48C224.42 491.63 220.3 494.95 215.09 495.84L215.07 495.86Z" fill="#161CAD"/>
<path d="M372.92 455.95C372.14 454.71 372.07 453.37 372.39 451.98C373.17 453.23 373.2 454.57 372.92 455.95Z" fill="#074C26"/>
<path d="M245.17 611.86C229.2 611.87 213.21 612.5 197.28 611.67C187.34 611.15 178.05 607.02 173.16 597.53C170.14 591.66 169.33 584.88 170.28 578.13C170.43 577.02 171.17 576.4 172.19 576.06C170.84 581.93 173.67 585.29 178.66 587.89C187.73 592.6 195.7 598.79 201.68 607.21C203.34 609.55 205.43 610.1 208.1 610.06C217.06 609.94 226.03 609.93 234.99 609.95C238.48 609.96 241.93 610.36 245.16 611.85L245.17 611.86Z" fill="#161CAD"/>
<path d="M1534.1 306.82C1544.36 305.22 1554.68 306.29 1564.98 306.16C1554.72 307.76 1544.4 306.97 1534.1 306.82Z" fill="#074C26"/>
</g>
<defs>
<clipPath id="clip0_80_43">
<rect width="1742" height="980" fill="white"/>
</clipPath>
</defs>
</svg>
